<svg version="1.1" xmlns="http://www.w3.org/2000/svg" xmlns:xlink="http://www.w3.org/1999/xlink" width="48px" height="48px" viewBox="0,0,256,256"><g fill="#ffffff" fill-rule="nonzero" stroke="none" stroke-width="1" stroke-linecap="butt" stroke-linejoin="miter" stroke-miterlimit="10" stroke-dasharray="" stroke-dashoffset="0" font-family="none" font-weight="none" font-size="none" text-anchor="none" style="mix-blend-mode: normal"><g transform="scale(5.33333,5.33333)"><path d="M24,4c-5.50508,0 -10,4.49492 -10,10c0,5.50508 4.49492,10 10,10c5.50508,0 10,-4.49492 10,-10c0,-5.50508 -4.49492,-10 -10,-10zM12.5,28c-2.4675,0 -4.5,2.0325 -4.5,4.5v1.19922c0,2.94086 1.86471,5.57876 4.70898,7.39258c2.84427,1.81382 6.73586,2.9082 11.29102,2.9082c4.55516,0 8.44674,-1.09438 11.29102,-2.9082c2.84427,-1.81382 4.70898,-4.45171 4.70898,-7.39258v-1.19922c0,-2.4675 -2.0325,-4.5 -4.5,-4.5z"></path></g></g></svg>