<svg version="1.1" xmlns="http://www.w3.org/2000/svg" xmlns:xlink="http://www.w3.org/1999/xlink" width="50px" height="50px" viewBox="0,0,256,256"><g fill="#ffffff" fill-rule="nonzero" stroke="none" stroke-width="1" stroke-linecap="butt" stroke-linejoin="miter" stroke-miterlimit="10" stroke-dasharray="" stroke-dashoffset="0" font-family="none" font-weight="none" font-size="none" text-anchor="none" style="mix-blend-mode: normal"><g transform="scale(5.12,5.12)"><path d="M5.98438,3c-0.26843,0.00416 -0.52392,0.11607 -0.70898,0.31055l-2,2.10547c-0.17686,0.18597 -0.27546,0.43281 -0.27539,0.68945v31.89453c-0.00035,0.03325 0.00095,0.06649 0.00391,0.09961c0.01882,2.08659 0.61836,3.99226 1.64648,5.43164c1.01044,1.41462 2.49207,2.39386 4.17969,2.45703c0.0562,0.00873 0.11305,0.01265 0.16992,0.01172h34c0.05035,-0.00011 0.10063,-0.00403 0.15039,-0.01172c1.69563,-0.05632 3.18482,-1.03869 4.19922,-2.45898c1.04469,-1.46272 1.65039,-3.40451 1.65039,-5.5293c0,-2.12479 -0.6057,-4.06658 -1.65039,-5.5293c-1.01048,-1.41482 -2.4922,-2.3957 -4.17969,-2.45898c-0.0562,-0.00873 -0.11305,-0.01265 -0.16992,-0.01172h-4v-26c-0.00016,-0.40437 -0.24381,-0.76885 -0.6174,-0.92359c-0.37359,-0.15474 -0.8036,-0.06928 -1.08963,0.21656l-3.28711,3.29297l-3.29883,-3.29297c-0.39053,-0.39037 -1.02353,-0.39037 -1.41406,0l-3.29297,3.29297l-3.29297,-3.29297c-0.39053,-0.39037 -1.02353,-0.39037 -1.41406,0l-3.29297,3.29297l-3.29297,-3.29297c-0.39053,-0.39037 -1.02353,-0.39037 -1.41406,0l-3.29297,3.29297l-3.29297,-3.29297c-0.19132,-0.19141 -0.45205,-0.29711 -0.72266,-0.29297zM9,12h14v2h-14zM26,12h7v2h-7zM9,16h7v2h-7zM19,16h14v2h-14zM9,20h5v2h-5zM17,20h7v2h-7zM27,20h6v2h-6zM9,24h11v2h-11zM23,24h10v2h-10zM38,32h5c1.00113,0 1.9554,0.56128 2.7207,1.63281c0.07879,0.11032 0.14167,0.2469 0.21484,0.36719h-31.73633c-0.23769,-0.55094 -0.51831,-1.06743 -0.84961,-1.53125c-0.11456,-0.16039 -0.23704,-0.31225 -0.36328,-0.46094c7.49816,0.02536 25.01367,-0.00781 25.01367,-0.00781zM8.97656,32.00195c0.00539,0.00009 0.04137,-0.00009 0.04688,0c0.99378,0.00873 1.94024,0.56634 2.69922,1.62891c0.76499,1.07099 1.27734,2.62916 1.27734,4.36914c0,1.73998 -0.51235,3.29816 -1.27734,4.36914c-0.76499,1.07099 -1.72025,1.63086 -2.72266,1.63086c-1.0024,0 -1.95767,-0.55987 -2.72266,-1.63086c-0.76499,-1.07099 -1.27734,-2.62916 -1.27734,-4.36914c0,-1.73998 0.51235,-3.29816 1.27734,-4.36914c0.75898,-1.06256 1.70544,-1.62018 2.69922,-1.62891zM9,35c-1.10457,0 -2,1.34315 -2,3c0,1.65685 0.89543,3 2,3c1.10457,0 2,-1.34315 2,-3c0,-1.65685 -0.89543,-3 -2,-3z"></path></g></g></svg>