<svg width="317" height="111" viewBox="0 0 317 111" fill="none" xmlns="http://www.w3.org/2000/svg">
<path d="M79.5693 77.1318C78.8662 77.0439 77.0571 77 74.1421 77H73.439V52.6982H69.0884C67.7993 52.6982 67.0376 52.7642 66.8032 52.896C66.5688 53.0278 66.3857 53.145 66.2539 53.2476L66.188 53.2256V47.6006L66.2539 47.5347C66.7373 47.6958 68.041 47.7764 70.165 47.7764H83.9419C85.231 47.7764 85.9927 47.7104 86.2271 47.5786C86.4614 47.4468 86.6445 47.3296 86.7764 47.2271L86.8423 47.249V52.874L86.7764 52.9399C86.293 52.7788 84.9893 52.6982 82.8652 52.6982H79.5693V77.1318ZM88.9077 84.6465L90.3579 83.4819C92.5405 81.7095 94.3496 79.0947 95.7852 75.6377L96.7959 73.1987L88.3804 54.0386H94.5327L99.8062 67.3101L104.706 54.0386H111.034C110.272 55.0933 109.342 57.0562 108.244 59.9272L104.948 68.0791C100.539 78.4502 97.0815 84.6318 94.5767 86.624L88.9077 84.6465ZM119.274 76.5386V82.9985C119.274 84.2583 119.303 85.0786 119.362 85.4595H113.891V54.0386H119.274V55.4668C121.046 54.2217 122.746 53.5991 124.372 53.5991C125.998 53.5991 127.44 53.8262 128.7 54.2803C129.96 54.7344 131.066 55.4375 132.018 56.3896C134.113 58.4551 135.16 61.3994 135.16 65.2227C135.16 67.7568 134.567 70.02 133.38 72.0122C132.37 73.6968 130.971 75.0444 129.184 76.0552C127.602 76.9487 125.888 77.3955 124.042 77.3955C122.196 77.3955 120.607 77.1099 119.274 76.5386ZM119.274 71.0015C120.387 71.939 121.83 72.4077 123.603 72.4077C126.503 72.4077 128.378 71.0088 129.228 68.2109C129.521 67.2588 129.667 66.2407 129.667 65.1567C129.667 64.0581 129.564 63.1865 129.359 62.542C129.154 61.8828 128.883 61.3188 128.546 60.8501C128.224 60.3667 127.858 59.9712 127.448 59.6636C127.038 59.3413 126.62 59.085 126.195 58.8945C125.448 58.5576 124.679 58.3892 123.888 58.3892C123.097 58.3892 122.277 58.5723 121.427 58.9385C120.578 59.3047 119.86 59.7954 119.274 60.4106V71.0015ZM138.698 65.7061C138.698 63.9922 138.991 62.4028 139.577 60.938C140.163 59.4731 140.99 58.1914 142.06 57.0928C144.345 54.7637 147.333 53.5991 151.024 53.5991C154.145 53.5991 156.649 54.6318 158.539 56.6973C160.399 58.6895 161.33 61.1943 161.33 64.2119C161.33 65.3691 161.242 66.1602 161.066 66.585C159.601 66.9951 156.62 67.2002 152.123 67.2002H144.389C144.77 68.7676 145.656 69.9907 147.047 70.8696C148.439 71.7339 150.248 72.166 152.475 72.166C154.804 72.166 156.803 71.7485 158.473 70.9136C158.913 70.6938 159.242 70.4888 159.462 70.2983C159.433 70.9136 159.396 71.5435 159.352 72.188L159.11 75.6157C157.997 76.3774 156.195 76.9048 153.705 77.1978C152.973 77.2856 152.27 77.3296 151.596 77.3296C147.875 77.3296 144.799 76.2456 142.367 74.0776C139.921 71.895 138.698 69.1045 138.698 65.7061ZM155.485 62.9375C154.884 59.7881 153.17 58.2134 150.343 58.2134C148.117 58.2134 146.425 59.1729 145.268 61.0918C144.916 61.6777 144.645 62.3223 144.455 63.0254C144.806 63.04 145.238 63.0547 145.751 63.0693H147.377C147.919 63.084 148.439 63.0913 148.937 63.0913H150.189C150.937 63.0913 151.669 63.084 152.387 63.0693L154.188 63.0034C154.672 62.9888 155.104 62.9668 155.485 62.9375Z" fill="white"/>
<path d="M166.33 53.4C166.33 52.12 166.716 51.0667 167.49 50.24C168.263 49.4133 169.423 49 170.97 49H177.85C181.61 49 184.37 49.76 186.13 51.28C187.916 52.7733 188.81 54.9733 188.81 57.88C188.81 60.6267 187.863 62.7067 185.97 64.12C184.076 65.5333 181.25 66.24 177.49 66.24L186.17 75.64C186.463 75.9333 186.61 76.2267 186.61 76.52C186.61 76.76 186.503 76.9733 186.29 77.16C186.103 77.32 185.903 77.4 185.69 77.4C185.37 77.4 185.01 77.1867 184.61 76.76L174.89 66.24H168.45V76.12C168.45 76.9733 168.09 77.4 167.37 77.4C166.676 77.4 166.33 76.9733 166.33 76.12V53.4ZM177.97 64.36C180.476 64.36 182.543 63.88 184.17 62.92C185.823 61.96 186.65 60.28 186.65 57.88C186.65 55.32 185.916 53.52 184.45 52.48C183.01 51.4133 180.876 50.88 178.05 50.88H170.73C170.036 50.88 169.476 51.1067 169.05 51.56C168.65 51.9867 168.45 52.56 168.45 53.28V64.36H177.97ZM202.489 77.4C199.929 77.4 197.916 76.6667 196.449 75.2C195.009 73.7333 194.289 71.7067 194.289 69.12V58.28C194.289 57.4267 194.636 57 195.329 57C195.996 57 196.329 57.4267 196.329 58.28V69.12C196.329 71.1733 196.862 72.7467 197.929 73.84C198.996 74.9333 200.516 75.48 202.489 75.48C204.009 75.48 205.369 75.1467 206.569 74.48C207.769 73.8133 208.702 72.88 209.369 71.68C210.062 70.48 210.409 69.12 210.409 67.6V58.28C210.409 57.4267 210.756 57 211.449 57C212.116 57 212.449 57.4267 212.449 58.28V76.12C212.449 76.9733 212.116 77.4 211.449 77.4C210.756 77.4 210.409 76.9733 210.409 76.12V73.28C209.422 74.5867 208.236 75.6 206.849 76.32C205.489 77.04 204.036 77.4 202.489 77.4ZM219.942 77.4C219.275 77.4 218.942 76.9733 218.942 76.12V58.28C218.942 57.4267 219.275 57 219.942 57C220.635 57 220.982 57.4267 220.982 58.28V61.12C221.969 59.7867 223.169 58.7733 224.582 58.08C226.022 57.36 227.595 57 229.302 57C231.862 57 233.795 57.6667 235.102 59C236.435 60.3333 237.102 62.2933 237.102 64.88V76.12C237.102 76.9733 236.755 77.4 236.062 77.4C235.395 77.4 235.062 76.9733 235.062 76.12V64.88C235.062 62.8267 234.595 61.32 233.662 60.36C232.729 59.4 231.275 58.92 229.302 58.92C227.649 58.92 226.195 59.2533 224.942 59.92C223.689 60.56 222.715 61.48 222.022 62.68C221.329 63.88 220.982 65.2533 220.982 66.8V76.12C220.982 76.9733 220.635 77.4 219.942 77.4ZM244.395 77.4C243.729 77.4 243.395 76.9733 243.395 76.12V58.28C243.395 57.4267 243.729 57 244.395 57C245.089 57 245.435 57.4267 245.435 58.28V61.12C246.422 59.7867 247.622 58.7733 249.035 58.08C250.475 57.36 252.049 57 253.755 57C256.315 57 258.249 57.6667 259.555 59C260.889 60.3333 261.555 62.2933 261.555 64.88V76.12C261.555 76.9733 261.209 77.4 260.515 77.4C259.849 77.4 259.515 76.9733 259.515 76.12V64.88C259.515 62.8267 259.049 61.32 258.115 60.36C257.182 59.4 255.729 58.92 253.755 58.92C252.102 58.92 250.649 59.2533 249.395 59.92C248.142 60.56 247.169 61.48 246.475 62.68C245.782 63.88 245.435 65.2533 245.435 66.8V76.12C245.435 76.9733 245.089 77.4 244.395 77.4ZM277.288 77.4C273.848 77.4 271.208 76.5067 269.368 74.72C267.555 72.9067 266.648 70.3333 266.648 67C266.648 64.9733 267.075 63.2133 267.928 61.72C268.782 60.2 270.008 59.04 271.608 58.24C273.208 57.4133 275.088 57 277.248 57C279.275 57 281.062 57.3333 282.608 58C284.182 58.64 285.408 59.5467 286.288 60.72C287.168 61.8933 287.608 63.24 287.608 64.76C287.608 65.8 287.342 66.6133 286.808 67.2C286.275 67.7867 285.515 68.08 284.528 68.08H268.808C268.808 70.4 269.555 72.2133 271.048 73.52C272.542 74.8267 274.622 75.48 277.288 75.48C278.968 75.48 280.382 75.2933 281.528 74.92C282.702 74.52 283.768 73.8667 284.728 72.96C285.155 72.5867 285.475 72.4 285.688 72.4C285.822 72.4 285.982 72.4667 286.168 72.6C286.462 72.84 286.608 73.0933 286.608 73.36C286.608 73.6 286.515 73.8133 286.328 74C285.315 75.12 284.035 75.9733 282.488 76.56C280.968 77.12 279.235 77.4 277.288 77.4ZM283.968 66.28C284.528 66.28 284.928 66.16 285.168 65.92C285.408 65.68 285.528 65.28 285.528 64.72C285.528 63.6267 285.168 62.64 284.448 61.76C283.755 60.8533 282.768 60.16 281.488 59.68C280.235 59.1733 278.822 58.92 277.248 58.92C274.555 58.92 272.475 59.56 271.008 60.84C269.568 62.12 268.848 63.9333 268.848 66.28H283.968ZM293.887 77.4C293.221 77.4 292.887 76.9733 292.887 76.12V58.28C292.887 57.4267 293.221 57 293.887 57C294.581 57 294.927 57.4267 294.927 58.28V61.12C295.887 59.84 297.007 58.9067 298.287 58.32C299.567 57.7067 301.087 57.4 302.847 57.4H303.887C304.714 57.4 305.127 57.72 305.127 58.36C305.127 59 304.714 59.32 303.887 59.32H302.847C300.394 59.32 298.461 59.9867 297.047 61.32C295.634 62.6533 294.927 64.48 294.927 66.8V76.12C294.927 76.9733 294.581 77.4 293.887 77.4Z" fill="#B8AAE9"/>
<rect x="73.7297" width="23.226" height="61.6884" transform="rotate(50 73.7297 0)" fill="#635985"/>
<path d="M32.5498 57.3196L20.6097 59.425L24.7564 48.0318L32.5498 57.3196Z" fill="#635985"/>
<path d="M39 68.5L15.5 64.5L31 70L0 86.5L23 94L1.5 110.5L317 96H37L56.5 89.5L13.5 85.5L39 68.5Z" fill="#635985"/>
</svg>
