<svg width="27" height="8" viewBox="0 0 27 8" fill="none" xmlns="http://www.w3.org/2000/svg">
<path d="M9 5.25756C9 4.11594 10.0912 3.2858 11.1956 3.57504V3.57504C11.4252 3.63517 11.6665 3.64855 11.9012 3.61343L14.4963 3.22505C15.231 3.11509 15.8542 3.76376 15.7149 4.4935V4.4935C15.693 4.60818 15.6899 4.72566 15.7056 4.84135L15.7216 4.95811C15.8688 6.03819 15.0293 7 13.9392 7H10.7424C9.78012 7 9 6.21988 9 5.25756V5.25756Z" fill="#031835"/>
<path d="M4.5293 6.27353C3.87953 5.33485 4.30431 4.0312 5.37698 3.64046V3.64046C5.59998 3.55923 5.80598 3.43291 5.97898 3.27043L7.89168 1.47409C8.43322 0.965503 9.31481 1.14417 9.6156 1.82348V1.82348C9.66287 1.93024 9.72717 2.02861 9.80598 2.11475L9.88553 2.20169C10.6214 3.00594 10.4785 4.27461 9.58219 4.89503L6.9537 6.71449C6.16245 7.2622 5.07701 7.06478 4.5293 6.27353V6.27353Z" fill="#031835"/>
<path d="M15 5.17731C15 4.25944 15.6825 3.48476 16.5931 3.36913L19.134 3.04647C19.3743 3.01596 19.6184 3.0451 19.8447 3.13132L19.8627 3.13818C20.5206 3.3888 20.9038 4.07535 20.7718 4.76685V4.76685C20.7423 4.92126 20.7383 5.08116 20.7596 5.23691V5.23691C20.8858 6.16269 20.168 7 19.2336 7H16.8227C15.816 7 15 6.18395 15 5.17731V5.17731Z" fill="#031835"/>
<path d="M21.7454 2.84054C21.9057 2.62621 22.1576 2.5 22.4252 2.5L23.0279 2.5C23.3384 2.5 23.6446 2.42771 23.9223 2.28885L24.283 2.1085C24.4269 2.03654 24.5804 1.98559 24.7388 1.95721L25.0148 1.90777C25.2886 1.8587 25.5706 1.92319 25.7959 2.0864V2.0864C26.206 2.38351 26.3372 2.93585 26.1046 3.38569L26.0714 3.44989C26.0135 3.5618 25.9749 3.6846 25.9577 3.80942V3.80942C25.8583 4.53091 25.141 5.01025 24.4409 4.80951L22.1912 4.16443C21.6203 4.00072 21.3898 3.31625 21.7454 2.84054V2.84054Z" fill="#031835"/>
<path d="M11 2.1239C11 1.22313 11.6402 0.449488 12.5251 0.280942L13.5974 0.0766915C13.8572 0.0271966 14.1262 0.0721137 14.3559 0.203352V0.203352C14.7458 0.426151 14.963 0.861903 14.9063 1.30737L14.8411 1.81957C14.8259 1.9395 14.8237 2.06074 14.8346 2.18114V2.18114C14.9234 3.15787 14.1544 4 13.1736 4H12.8761C11.84 4 11 3.16004 11 2.1239V2.1239Z" fill="#031835"/>
<path d="M18.5331 2.5755C18.348 2.04677 18.6764 1.4772 19.2266 1.37238L20.7364 1.08481C21.0149 1.03176 21.3017 1.12001 21.5021 1.3205V1.3205C21.6193 1.43765 21.6999 1.58626 21.7343 1.74833L21.8575 2.32894C21.9428 2.73109 21.7653 3.14334 21.4145 3.35771V3.35771C21.2622 3.45076 21.0872 3.5 20.9088 3.5H20.5062C20.2912 3.5 20.0777 3.46534 19.8737 3.39737L19.1083 3.14222C18.8392 3.05252 18.6268 2.84325 18.5331 2.5755V2.5755Z" fill="#031835"/>
<path d="M14.7193 2.22077C14.6417 1.5882 15.1246 1.0258 15.7617 1.00702V1.00702C15.9187 1.0024 16.0728 0.963657 16.2133 0.893495L17.1769 0.412352C17.3846 0.308628 17.6238 0.286997 17.8468 0.35177V0.35177C18.2563 0.470722 18.531 0.854652 18.5114 1.2806L18.5027 1.47094C18.4975 1.58315 18.5087 1.69584 18.5357 1.80487V1.80487C18.7068 2.49566 18.2359 3.18319 17.5296 3.26992L16.1049 3.44485C15.4328 3.52737 14.8211 3.04943 14.7385 2.37734L14.7193 2.22077Z" fill="#031835"/>
<path d="M22.7754 6.83666C22.4811 7.1906 21.9133 7.08878 21.7603 6.65464V6.65464C21.7303 6.56948 21.6813 6.4923 21.6169 6.42898L20.9451 5.76827C20.8 5.62553 20.7171 5.43124 20.7146 5.22769V5.22769C20.7102 4.87896 20.9402 4.5706 21.2757 4.4754L21.4786 4.41784C21.5707 4.3917 21.6588 4.35302 21.7404 4.30288V4.30288C22.2724 3.97596 22.9705 4.1856 23.2344 4.75154L23.7767 5.91443C23.932 6.24742 23.6539 6.61925 23.2906 6.56451V6.56451C23.1312 6.54049 22.9709 6.60154 22.8679 6.72548L22.7754 6.83666Z" fill="#031835"/>
<path d="M23.7827 5.69452C23.5863 5.27822 23.9185 4.80664 24.3767 4.85147V4.85147C24.4665 4.86026 24.5572 4.84841 24.6418 4.81683L25.5245 4.48723C25.7152 4.41602 25.9263 4.42303 26.1119 4.50673V4.50673C26.4298 4.65013 26.6121 4.98889 26.5565 5.3332L26.523 5.5414C26.5077 5.63595 26.5056 5.73214 26.5165 5.82728V5.82728C26.588 6.44762 26.1029 6.99172 25.4785 6.99172H24.1954C23.828 6.99172 23.6085 6.58262 23.8116 6.27647V6.27647C23.9007 6.14218 23.9132 5.97106 23.8444 5.82529L23.7827 5.69452Z" fill="#031835"/>
<path d="M4.36322 5.44182C4.18614 6.35282 3.40563 7.02233 2.47829 7.05867L1.51332 7.09648C1.17505 7.10974 0.847307 6.97739 0.6131 6.73294V6.73294C0.317461 6.42438 0.211288 5.98032 0.335377 5.5714L0.605991 4.67963C0.635131 4.5836 0.655755 4.48519 0.667623 4.38555L0.718876 3.95523C0.829909 3.02301 1.81382 2.46646 2.67 2.85157L2.71926 2.87372C2.90335 2.95653 3.10558 2.99085 3.30669 2.97341V2.97341C4.08976 2.90553 4.72005 3.6061 4.57008 4.37766L4.36322 5.44182Z" fill="#031835"/>
<path d="M5.13835 0.346421C5.83943 0.297396 6.49376 0.70075 6.76494 1.34912L6.93906 1.76545C7.0749 2.09024 7.01323 2.46409 6.78025 2.72802V2.72802C6.60548 2.92603 6.35395 3.03926 6.08984 3.03881L4.73556 3.03651L3.55494 3.17999C2.94278 3.25438 2.44831 2.68824 2.60439 2.09165L2.61828 2.03858C2.66264 1.86899 2.64423 1.68908 2.56644 1.532V1.532C2.3369 1.0685 2.65118 0.520341 3.16714 0.484262L5.13835 0.346421Z" fill="#031835"/>
</svg>
