<svg version="1.1" xmlns="http://www.w3.org/2000/svg" xmlns:xlink="http://www.w3.org/1999/xlink" width="50px" height="50px" viewBox="0,0,256,256"><g fill="#ffffff" fill-rule="nonzero" stroke="none" stroke-width="1" stroke-linecap="butt" stroke-linejoin="miter" stroke-miterlimit="10" stroke-dasharray="" stroke-dashoffset="0" font-family="none" font-weight="none" font-size="none" text-anchor="none" style="mix-blend-mode: normal"><g transform="scale(5.12,5.12)"><path d="M36.9375,2.84375c0,5.66406 -2.35937,5.98438 -5.625,6.4375c-2.60547,0.35938 -5.73437,0.8125 -6.875,4.71875h2.125c0.87109,-2.14062 2.69141,-2.39844 5,-2.71875c3.27344,-0.45312 7.375,-1.03125 7.375,-8.4375zM4,16c-2.20703,0 -4,1.79297 -4,4v20c0,2.20703 1.79297,4 4,4h42c2.20703,0 4,-1.79297 4,-4v-20c0,-2.20703 -1.79297,-4 -4,-4zM5,22h4v4h-4zM11,22h4v4h-4zM17,22h4v4h-4zM23,22h4v4h-4zM29,22h4v4h-4zM35,22h4v4h-4zM41,22h4v4h-4zM5,28h7v4h-7zM14,28h4v4h-4zM20,28h4v4h-4zM26,28h4v4h-4zM32,28h4v4h-4zM38,28h7v4h-7zM5,34h4v4h-4zM11,34h4v4h-4zM17,34h16v4h-16zM35,34h4v4h-4zM41,34h4v4h-4z"></path></g></g></svg>