<svg width="121" height="74" viewBox="0 0 121 74" fill="none" xmlns="http://www.w3.org/2000/svg">
<rect x="5" y="5" width="111" height="64" rx="14" stroke="#9287B7" stroke-width="10"/>
<rect x="21.0711" y="14" width="32.9833" height="10" rx="5" transform="rotate(45 21.0711 14)" fill="#D9D9D9"/>
<rect x="42.7257" y="16.2928" width="26" height="10" rx="5" transform="rotate(90 42.7257 16.2928)" fill="#D9D9D9"/>
<rect x="25.7257" y="16.2928" width="26" height="10" rx="5" transform="rotate(90 25.7257 16.2928)" fill="#D9D9D9"/>
<rect x="95" y="32" width="10" height="10" rx="5" fill="#D9D9D9"/>
<rect x="64" y="48" width="10" height="10" rx="5" fill="#D9D9D9"/>
<rect x="64" y="32" width="10" height="10" rx="5" fill="#D9D9D9"/>
<rect x="48" y="42" width="10" height="10" rx="5" transform="rotate(-90 48 42)" fill="#D9D9D9"/>
<rect x="80" y="58" width="26" height="10" rx="5" transform="rotate(-90 80 58)" fill="#D9D9D9"/>
<rect x="105" y="42" width="41" height="10" rx="5" transform="rotate(180 105 42)" fill="#D9D9D9"/>
<path d="M64 21C64 18.2386 66.2386 16 69 16H84C86.7614 16 89 18.2386 89 21V21C89 23.7614 86.7614 26 84 26H69C66.2386 26 64 23.7614 64 21V21Z" fill="#D9D9D9"/>
<path d="M41 53C41 50.2386 43.2386 48 46 48H54C56.7614 48 59 50.2386 59 53V53C59 55.7614 56.7614 58 54 58H46C43.2386 58 41 55.7614 41 53V53Z" fill="#D9D9D9"/>
<path d="M48 37C48 34.2386 50.2386 32 53 32V32C55.7614 32 58 34.2386 58 37V37C58 39.7614 55.7614 42 53 42V42C50.2386 42 48 39.7614 48 37V37Z" fill="#D9D9D9"/>
<path d="M95 21C95 18.2386 97.2386 16 100 16V16C102.761 16 105 18.2386 105 21V21C105 23.7614 102.761 26 100 26V26C97.2386 26 95 23.7614 95 21V21Z" fill="#D9D9D9"/>
<path d="M95 53C95 50.2386 97.2386 48 100 48V48C102.761 48 105 50.2386 105 53V53C105 55.7614 102.761 58 100 58V58C97.2386 58 95 55.7614 95 53V53Z" fill="#D9D9D9"/>
<path d="M16 53C16 50.2386 18.2386 48 21 48H29C31.7614 48 34 50.2386 34 53V53C34 55.7614 31.7614 58 29 58H21C18.2386 58 16 55.7614 16 53V53Z" fill="#D9D9D9"/>
<path d="M58 21C58 23.7614 55.7614 26 53 26C50.2386 26 48 23.7614 48 21C48 18.2386 50.2386 16 53 16C55.7614 16 58 18.2386 58 21Z" fill="#D9D9D9"/>
</svg>
